<?xml version="1.0" standalone="no"?>
<!DOCTYPE svg PUBLIC "-//W3C//DTD SVG 20010904//EN"
 "http://www.w3.org/TR/2001/REC-SVG-20010904/DTD/svg10.dtd">
<svg version="1.0" xmlns="http://www.w3.org/2000/svg"
 width="512.000000pt" height="512.000000pt" viewBox="0 0 512.000000 512.000000"
 preserveAspectRatio="xMidYMid meet">

<g transform="translate(0.000000,512.000000) scale(0.100000,-0.100000)"
fill="#000000" stroke="none">
<path d="M920 4943 c-21 -20 -112 -198 -311 -608 -154 -319 -283 -596 -287
-615 -3 -18 -11 -45 -19 -60 -10 -20 -13 -199 -13 -947 l0 -922 -66 -21 c-37
-11 -92 -23 -122 -27 -40 -4 -63 -13 -80 -30 l-24 -24 5 -362 c3 -331 6 -369
25 -445 43 -164 128 -313 259 -452 121 -129 337 -280 400 -280 57 0 251 122
368 231 l63 59 1946 0 c2143 0 1995 -4 2036 62 20 33 20 46 20 1583 0 1271 -3
1555 -13 1575 -8 15 -16 42 -19 60 -4 19 -133 296 -287 615 -199 410 -290 588
-311 608 l-30 27 -1755 0 -1755 0 -30 -27z m1440 -663 l0 -540 -935 0 -935 0
14 33 c8 17 107 223 221 457 114 234 225 462 246 508 l38 82 676 0 675 0 0
-540z m540 0 l0 -540 -195 0 -195 0 0 540 0 540 195 0 195 0 0 -540z m1751 20
c138 -283 255 -525 260 -537 l9 -23 -935 0 -935 0 0 540 0 540 676 -2 675 -3
250 -515z m319 -2215 l0 -1495 -1865 0 c-1026 0 -1865 2 -1865 5 0 3 11 23 24
44 32 50 70 141 97 232 21 69 23 98 27 443 2 203 1 379 -2 392 -8 32 -26 39
-134 58 -181 31 -313 102 -454 240 -55 55 -83 76 -102 76 -19 0 -47 -22 -108
-83 -46 -46 -98 -93 -115 -106 l-33 -22 0 855 0 856 2265 0 2265 0 0 -1495z
m-4120 -322 c93 -63 234 -120 363 -148 l27 -5 0 -291 c0 -311 -8 -385 -55
-502 -72 -179 -255 -379 -437 -476 l-64 -34 -70 45 c-217 140 -372 335 -435
548 -20 69 -23 101 -26 386 l-5 311 37 7 c65 12 204 63 263 97 71 39 177 117
216 158 l29 30 56 -48 c31 -26 76 -61 101 -78z"/>
<path d="M3957 3204 c-36 -35 -39 -70 -35 -353 l3 -243 33 -29 32 -29 271 0
c293 0 314 3 337 55 8 18 12 106 12 286 0 276 -4 305 -49 329 -12 6 -127 10
-299 10 l-279 0 -26 -26z m503 -314 l0 -190 -195 0 -195 0 0 190 0 190 195 0
195 0 0 -190z" fill='#1E6FD9'/>
<path d="M2673 2090 c-45 -18 -55 -72 -22 -114 l20 -26 923 0 923 0 21 23 c27
29 28 67 3 98 l-19 24 -914 2 c-514 1 -923 -2 -935 -7z"/>
<path d="M2870 1770 c-30 -30 -27 -83 7 -109 26 -21 28 -21 835 -19 l810 3 19
24 c26 32 24 73 -4 99 l-23 22 -812 0 c-799 0 -812 0 -832 -20z"/>
<path d="M3605 1455 c-14 -13 -25 -31 -25 -39 0 -28 22 -64 47 -75 16 -7 160
-11 454 -11 l430 0 24 25 c32 31 33 74 2 103 -23 22 -25 22 -466 22 l-442 0
-24 -25z"/>
<path d="M742 1084 c-112 -86 -207 -152 -212 -148 -4 5 -20 43 -35 84 -15 41
-36 84 -46 94 -21 23 -71 25 -95 6 -38 -33 -36 -54 21 -208 57 -152 77 -182
124 -182 31 0 518 367 539 406 25 47 -12 104 -68 104 -17 0 -89 -49 -228 -156z" fill='#1E6FD9'/>
</g>
</svg>
