<?xml version="1.0" standalone="no"?>
<!DOCTYPE svg PUBLIC "-//W3C//DTD SVG 20010904//EN"
 "http://www.w3.org/TR/2001/REC-SVG-20010904/DTD/svg10.dtd">
<svg version="1.0" xmlns="http://www.w3.org/2000/svg"
 width="512.000000pt" height="512.000000pt" viewBox="0 0 512.000000 512.000000"
 preserveAspectRatio="xMidYMid meet">

<g transform="translate(0.000000,512.000000) scale(0.100000,-0.100000)"
fill="#000000" stroke="none">
<path d="M310 4859 c-116 -23 -221 -106 -273 -217 l-32 -67 0 -1655 0 -1655
27 -57 c35 -76 109 -153 183 -192 l60 -31 301 -3 302 -3 21 27 c27 35 27 56
-3 91 l-24 28 -284 5 c-317 6 -317 6 -380 80 -19 22 -40 57 -46 79 -9 28 -12
374 -12 1310 l0 1271 2410 0 2410 0 0 -1271 c0 -936 -3 -1282 -12 -1310 -15
-52 -73 -117 -122 -140 -40 -18 -136 -26 -136 -11 0 4 9 37 19 73 37 130 43
226 39 681 l-3 438 -32 32 -33 33 -177 11 c-98 7 -200 15 -228 19 -43 6 -53 4
-72 -14 -32 -30 -31 -83 2 -109 29 -23 142 -42 248 -42 40 0 89 -3 110 -7 l38
-6 -3 -446 c-5 -511 -7 -527 -98 -716 -89 -186 -170 -271 -483 -512 -215 -166
-251 -184 -316 -164 -48 14 -414 292 -519 395 -94 91 -151 171 -206 287 -88
186 -89 193 -93 705 l-4 451 38 6 c21 4 72 7 113 7 41 0 116 7 166 15 209 34
349 99 467 218 l78 78 67 -70 c39 -41 79 -73 95 -77 41 -10 81 22 85 68 3 31
-5 42 -80 120 -139 143 -195 144 -334 3 -140 -143 -266 -188 -579 -208 -207
-14 -224 -19 -251 -75 -13 -29 -15 -93 -12 -515 l4 -482 27 -100 c15 -55 27
-101 27 -102 0 -2 -367 -4 -816 -5 l-816 -3 -24 -28 c-29 -34 -30 -56 -3 -91
l20 -26 854 0 853 0 39 -63 c104 -165 159 -218 493 -476 209 -162 252 -185
350 -185 100 0 140 22 375 204 289 223 387 321 477 473 l26 45 109 4 c94 3
115 8 166 33 71 35 150 117 185 192 l27 58 0 1655 0 1655 -32 67 c-55 116
-158 195 -286 218 -33 7 -151 10 -278 8 -218 -3 -221 -3 -240 -27 -22 -28 -25
-69 -5 -97 13 -18 32 -19 268 -24 278 -5 296 -9 359 -73 63 -62 64 -67 67
-359 l3 -268 -2411 0 -2411 0 3 268 c3 227 6 272 20 298 22 41 73 89 117 111
34 17 131 18 1879 23 1810 5 1844 5 1858 24 20 28 17 69 -5 97 l-19 24 -1824
1 c-1011 1 -1843 -2 -1868 -7z"/>
<path d="M539 4461 c-35 -34 -39 -44 -39 -87 0 -58 26 -106 69 -129 117 -60
246 69 186 186 -23 43 -71 69 -129 69 -43 0 -53 -4 -87 -39z" fill= '#DB3F39'/>
<path d="M984 4481 c-55 -34 -79 -113 -50 -169 64 -122 237 -100 262 34 8 43
-25 113 -65 137 -38 23 -108 22 -147 -2z" fill='#F1C31B'/>
<path d="M1406 4479 c-105 -83 -53 -249 79 -249 135 0 187 180 72 250 -44 27
-116 27 -151 -1z" fill='#84BF04'/>
<path d="M797 3358 c-16 -15 -43 -74 -78 -175 -30 -84 -56 -153 -59 -153 -3 0
-27 66 -55 147 -27 80 -58 157 -68 170 -37 47 -127 18 -127 -40 0 -33 179
-549 197 -569 23 -26 88 -24 106 3 9 11 39 88 68 170 29 82 56 149 60 149 4 0
30 -69 59 -154 28 -84 59 -161 69 -170 21 -19 70 -21 95 -3 19 14 206 534 206
574 0 54 -86 86 -124 44 -9 -10 -36 -74 -60 -142 -75 -211 -59 -208 -125 -19
-47 132 -63 167 -82 177 -35 18 -55 16 -82 -9z"/>
<path d="M1779 3361 c-18 -14 -40 -64 -79 -175 -30 -86 -57 -156 -60 -156 -3
0 -30 69 -59 154 -29 85 -61 162 -70 170 -41 37 -121 5 -121 -48 0 -35 177
-546 197 -568 21 -23 78 -23 101 0 10 10 42 87 71 170 30 84 56 152 60 152 3
0 30 -69 59 -154 30 -85 62 -162 71 -170 21 -19 71 -21 94 -3 18 13 207 537
207 575 0 32 -34 62 -72 62 -57 0 -59 -4 -124 -192 -26 -73 -50 -137 -54 -141
-4 -4 -30 61 -59 145 -58 171 -57 171 -88 187 -30 16 -47 14 -74 -8z"/>
<path d="M2767 3358 c-17 -16 -42 -73 -78 -175 -29 -84 -55 -153 -58 -153 -3
0 -28 66 -56 147 -27 80 -58 157 -68 170 -37 46 -127 18 -127 -40 0 -33 179
-548 198 -569 9 -11 29 -18 53 -18 49 0 55 10 115 175 26 72 51 141 56 155 9
22 17 6 64 -134 29 -87 61 -167 70 -177 20 -22 72 -25 98 -6 19 14 206 533
206 573 0 56 -86 87 -124 45 -9 -10 -39 -83 -67 -161 -27 -79 -52 -147 -56
-153 -3 -5 -32 64 -63 154 -46 133 -61 166 -81 176 -35 18 -55 16 -82 -9z"/>
<path d="M3619 2290 c-126 -65 -243 -103 -414 -135 -116 -21 -144 -30 -165
-51 l-25 -24 0 -343 c0 -292 3 -353 18 -417 34 -145 108 -285 211 -397 47 -52
413 -345 465 -372 46 -25 83 -5 278 145 220 171 276 223 344 322 61 87 101
173 130 278 20 72 23 107 27 412 4 346 2 371 -38 407 -10 9 -65 24 -131 36
-173 30 -282 64 -415 129 -77 39 -133 60 -155 60 -22 0 -69 -18 -130 -50z
m219 -145 c135 -67 388 -144 480 -145 l24 0 -4 -302 c-5 -338 -8 -361 -77
-503 -21 -44 -61 -107 -88 -140 -48 -60 -396 -344 -421 -345 -20 0 -359 268
-408 324 -53 59 -101 139 -132 216 -44 110 -52 178 -52 470 l0 275 98 17 c126
22 288 75 399 132 48 24 89 45 90 45 2 1 43 -19 91 -44z"/>
<path d="M3850 1625 c-113 -113 -209 -205 -214 -205 -6 0 -53 43 -107 95 -57
56 -104 95 -116 95 -37 0 -73 -38 -73 -77 0 -33 12 -48 118 -155 125 -128 158
-152 195 -143 13 4 133 115 265 249 215 215 242 245 242 274 0 42 -30 72 -73
72 -29 0 -54 -22 -237 -205z" fill='#1E6FD9'/>
</g>
</svg>
